<svg width="16.284668" height="22.052094" viewBox="0 0 16.2847 22.0521" fill="none" xmlns="http://www.w3.org/2000/svg" xmlns:xlink="http://www.w3.org/1999/xlink">
	<desc>
			Created with Pixso.
	</desc>
	<defs/>
	<path id="monetization_on" d="M7.40942 18.7443L8.83447 18.7443L8.83447 17.366C9.51294 17.2006 10.0964 16.8423 10.585 16.291C11.0735 15.7397 11.3179 14.9219 11.3179 13.8377C11.3179 13.0659 11.155 12.3584 10.8293 11.7152C10.5037 11.072 9.85229 10.5115 8.875 10.0337C8.06079 9.66617 7.4978 9.34457 7.18555 9.06891C6.87354 8.79327 6.71729 8.41653 6.71729 7.93875C6.71729 7.46097 6.84302 7.08423 7.09399 6.80859C7.34497 6.53293 7.70801 6.39511 8.18311 6.39511C8.61719 6.39511 8.95654 6.53754 9.20093 6.82236C9.44507 7.10721 9.62158 7.46097 9.72998 7.88361L11.0327 7.16693C10.8835 6.52374 10.6086 5.96326 10.2085 5.48544C9.80811 5.00766 9.36377 4.74121 8.875 4.68607L8.875 3.3078L7.4502 3.3078L7.4502 4.68607C6.77173 4.88821 6.24243 5.29251 5.86255 5.89893C5.48242 6.50537 5.29248 7.1853 5.29248 7.93875C5.29248 8.80246 5.479 9.50076 5.85229 10.0337C6.22559 10.5666 6.8125 11.026 7.61304 11.412C8.46802 11.8346 9.06177 12.2113 9.39429 12.5421C9.72656 12.8729 9.89282 13.3047 9.89282 13.8377C9.89282 14.4441 9.7334 14.8897 9.41455 15.1746C9.0957 15.4594 8.71216 15.6018 8.2644 15.6018C7.81665 15.6018 7.41968 15.4135 7.07373 15.0368C6.72754 14.66 6.47314 14.095 6.3103 13.3415L4.9668 14.0582C5.15674 14.9403 5.4519 15.6524 5.85229 16.1945C6.25269 16.7366 6.77173 17.1087 7.40942 17.3109L7.40942 18.7443ZM8.14233 22.0521C7.01587 22.0521 5.95752 21.7626 4.9668 21.1838C3.97607 20.6049 3.1145 19.8193 2.38159 18.827C1.64893 17.8346 1.0686 16.6677 0.641113 15.3262C0.213623 13.9847 0 12.5513 0 11.026C0 9.50076 0.213623 8.06738 0.641113 6.72589C1.0686 5.38437 1.64893 4.21747 2.38159 3.22513C3.1145 2.23279 3.97607 1.44717 4.9668 0.868286C5.95752 0.289429 7.01587 0 8.14233 0C9.26855 0 10.3271 0.289429 11.3179 0.868286C12.3083 1.44717 13.1702 2.23279 13.9031 3.22513C14.6357 4.21747 15.2158 5.38437 15.6433 6.72589C16.0708 8.06738 16.2847 9.50076 16.2847 11.026C16.2847 12.5513 16.0708 13.9847 15.6433 15.3262C15.2158 16.6677 14.6357 17.8346 13.9031 18.827C13.1702 19.8193 12.3083 20.6049 11.3179 21.1838C10.3271 21.7626 9.26855 22.0521 8.14233 22.0521Z" fill="#FFFFFF" fill-opacity="1.000000" fill-rule="nonzero"/>
</svg>
